# xmcd
#
# Track frame offsets:
#	150
#	17955
#	33875
#	57917
#	79052
#	99012
#	115592
#	133187
#	161007
#	182827
#	202520
#	219527
#	237722
#	255280
#	279565
#	298390
#	316947
#	334557
#
# Disc length: 4722 seconds
#
# Revision: 7
# Processed by: cddbd v1.5.2PL0 Copyright (c) Steve Scherf et al.
# Submitted via: audiograbber 1.83.01
#
DISCID=f9127012
DTITLE=Bachman-Turner Overdrive - Best Of B.T.O. [remastered]
DYEAR=1998
DGENRE=Rock
TTITLE0=Roll On Down The Highway
TTITLE1=Hey You
TTITLE2=Lookin' Out For #1
TTITLE3=Gimme Your Money Please
TTITLE4=Let It Ride
TTITLE5=Take It Like A Man
TTITLE6=You Ain't Seen Nothing Yet
TTITLE7=Blue Collar
TTITLE8=Takin' Care Of Business
TTITLE9=Four Wheel Drive
TTITLE10=Free Wheelin'
TTITLE11=Down To The Line
TTITLE12=I'm In Love
TTITLE13=Shotgun Rider
TTITLE14=Jamaica
TTITLE15=Down The Road
TTITLE16=Heartaches
TTITLE17=Down, Down
EXTD=
EXTT0=
EXTT1=
EXTT2=
EXTT3=
EXTT4=
EXTT5=
EXTT6=
EXTT7=
EXTT8=
EXTT9=
EXTT10=
EXTT11=
EXTT12=
EXTT13=
EXTT14=
EXTT15=
EXTT16=
EXTT17=
PLAYORDER=
